<?xml version="1.0" encoding="utf-8"?>
<!-- Generator: Adobe Illustrator 24.3.0, SVG Export Plug-In . SVG Version: 6.00 Build 0)  -->
<svg version="1.1" id="Layer_1" xmlns="http://www.w3.org/2000/svg" xmlns:xlink="http://www.w3.org/1999/xlink" x="0px" y="0px"
	 viewBox="0 0 816.31 199.95" style="enable-background:new 0 0 816.31 199.95;" xml:space="preserve">
<style type="text/css">
	.st0{fill:#231F20;}
	.st1{fill:url(#SVGID_1_);}
	.st2{fill:url(#SVGID_2_);}
	.st3{fill:url(#SVGID_3_);}
	.st4{fill:url(#SVGID_4_);}
	.st5{fill:url(#SVGID_5_);}
	.st6{opacity:0.5;fill:url(#SVGID_6_);}
	.st7{opacity:0.5;fill:url(#SVGID_7_);}
	.st8{opacity:0.5;fill:url(#SVGID_8_);}
	.st9{fill:url(#SVGID_9_);}
</style>
<g>
	<g>
		<path class="st0" d="M252.78,131.23h-14.55V96.57h-19.82v-12.8h54.12v12.8h-19.75V131.23z"/>
		<path class="st0" d="M325.91,102.49V112h-33.79v8.26h35.84v10.97h-48.63V83.77h48.63v10.97h-35.84v7.75H325.91z"/>
		<path class="st0" d="M382.81,113.46h12.8v6.8c0,3.02-1.24,5.61-3.73,7.75c-2.49,2.15-5.51,3.22-9.07,3.22h-35.1
			c-3.46,0-6.46-1.07-9-3.21c-2.54-2.14-3.8-4.72-3.8-7.74V94.72c0-3.02,1.24-5.6,3.73-7.74c2.49-2.14,5.51-3.21,9.07-3.21h35.1
			c3.46,0,6.46,1.07,9,3.2c2.53,2.14,3.8,4.71,3.8,7.72v5.97h-12.8c0-1.64-0.71-3.03-2.12-4.19c-1.42-1.16-3.14-1.74-5.19-1.74
			h-20.48c-2.1,0-3.84,0.56-5.23,1.68c-1.39,1.12-2.08,2.55-2.08,4.3v12.76c0,1.85,0.72,3.44,2.16,4.78
			c1.44,1.34,3.16,2.01,5.16,2.01h20.48c2,0,3.72-0.67,5.16-2.01C382.09,116.91,382.81,115.31,382.81,113.46z"/>
		<path class="st0" d="M415.5,113.68v17.55h-12.8V83.77h12.8v17.11h31.59V83.77h12.8v47.46h-12.8v-17.55H415.5z"/>
		<path class="st0" d="M544.22,113.46h12.8v6.8c0,3.02-1.24,5.61-3.73,7.75c-2.49,2.15-5.51,3.22-9.07,3.22h-35.1
			c-3.46,0-6.46-1.07-9-3.21c-2.54-2.14-3.8-4.72-3.8-7.74V94.72c0-3.02,1.24-5.6,3.73-7.74c2.49-2.14,5.51-3.21,9.07-3.21h35.1
			c3.46,0,6.46,1.07,9,3.2c2.53,2.14,3.8,4.71,3.8,7.72v5.97h-12.8c0-1.64-0.71-3.03-2.12-4.19c-1.42-1.16-3.14-1.74-5.19-1.74
			h-20.48c-2.1,0-3.84,0.56-5.23,1.68c-1.39,1.12-2.08,2.55-2.08,4.3v12.76c0,1.85,0.72,3.44,2.16,4.78
			c1.44,1.34,3.16,2.01,5.16,2.01h20.48c2,0,3.72-0.67,5.16-2.01C543.49,116.91,544.22,115.31,544.22,113.46z"/>
		<path class="st0" d="M576.54,131.38h-12.8V83.77h41.69c3.51,0,6.52,1.18,9.03,3.54c2.51,2.36,3.77,5.19,3.77,8.5v8.02
			c0,1.9-0.56,3.54-1.68,4.92c-1.12,1.39-2.63,2.78-4.53,4.19c2.78,0.34,4.51,1.94,5.19,4.79c0.68,2.85,1.02,7.4,1.02,13.64h-12.8
			c0-4.14-0.37-7.19-1.1-9.14s-1.71-2.93-2.92-2.93h-24.87V131.38z M576.54,95.84v11.41h23.18c1.56,0,2.9-0.61,4.02-1.82
			c1.12-1.21,1.68-2.66,1.68-4.36c0-1.45-0.56-2.69-1.68-3.71c-1.12-1.02-2.46-1.53-4.02-1.53H576.54z"/>
		<path class="st0" d="M623.34,131.23l23.26-47.46h20.11l23.11,47.46h-14.19l-4.39-9h-29.25l-4.39,9H623.34z M666.64,112.73
			l-9.95-20.4l-10.02,20.4H666.64z"/>
		<path class="st0" d="M741.97,102.49V112h-33.79v19.23h-12.8V83.77h48.63v10.97h-35.84v7.75H741.97z"/>
		<path class="st0" d="M784.02,131.23h-14.55V96.57h-19.82v-12.8h54.12v12.8h-19.75V131.23z"/>
	</g>
	<g>
		<linearGradient id="SVGID_1_" gradientUnits="userSpaceOnUse" x1="31.0909" y1="215.5348" x2="65.3029" y2="92.5344">
			<stop  offset="0" style="stop-color:#FC2EB0"/>
			<stop  offset="0.5842" style="stop-color:#AB11E2"/>
			<stop  offset="1" style="stop-color:#0168E7"/>
		</linearGradient>
		<path class="st1" d="M49.93,122.08c0,13.14,1.17,51.68,32.41,64.25c-1.76,0.14-3.54,0.22-5.33,0.22
			c-35.55,0-64.47-28.92-64.47-64.47c0-15.77,5.7-30.25,15.14-41.46c38.7-16.96,76.4,9.18,76.4,41.46
			c0-14.93-12.15-27.08-27.08-27.08C62.08,95,49.93,107.15,49.93,122.08z"/>
		<linearGradient id="SVGID_2_" gradientUnits="userSpaceOnUse" x1="-8.8755" y1="176.6901" x2="111.1471" y2="141.7842">
			<stop  offset="0" style="stop-color:#FC2EB0"/>
			<stop  offset="0.5842" style="stop-color:#AB11E2"/>
			<stop  offset="0.7882" style="stop-color:#7B09E0"/>
			<stop  offset="0.8106" style="stop-color:#7609D7"/>
			<stop  offset="0.8472" style="stop-color:#6708BF"/>
			<stop  offset="0.8935" style="stop-color:#4F0797"/>
			<stop  offset="0.947" style="stop-color:#2F0660"/>
			<stop  offset="1" style="stop-color:#0A0423"/>
		</linearGradient>
		<path class="st2" d="M117.83,171.94c-9.84,8.06-22.09,13.28-35.49,14.38c-31.24-12.57-32.41-51.1-32.41-64.25
			c0,14.94,12.15,27.08,27.08,27.08c14.93,0,27.08-12.14,27.08-27.08v15.76C104.08,151,109.31,163.09,117.83,171.94z"/>
		<linearGradient id="SVGID_3_" gradientUnits="userSpaceOnUse" x1="51.9109" y1="44.1289" x2="139.994" y2="171.3053">
			<stop  offset="0" style="stop-color:#FC2EB0"/>
			<stop  offset="0.5842" style="stop-color:#AB11E2"/>
			<stop  offset="1" style="stop-color:#0169E3"/>
			<stop  offset="1" style="stop-color:#6B07DF"/>
		</linearGradient>
		<path class="st3" d="M177.12,179.41c-7.56,4.68-16.5,7.32-26.06,7.13c-13.06-0.25-24.77-5.83-33.23-14.6
			c-8.52-8.85-13.75-20.94-13.75-34.1v-15.76c0-32.28-37.71-58.42-76.4-41.46c11.83-14.07,29.56-23.01,49.33-23.01
			c35.55,0,64.47,28.93,64.47,64.47c0,0,0,7.68,0,16.26v11.58C141.48,171.43,157.9,182.07,177.12,179.41z"/>
		<g>
			<linearGradient id="SVGID_4_" gradientUnits="userSpaceOnUse" x1="167.2408" y1="186.8817" x2="178.1275" y2="36.9424">
				<stop  offset="0" style="stop-color:#0169E3"/>
				<stop  offset="0.5842" style="stop-color:#AB11E2"/>
				<stop  offset="1" style="stop-color:#6B07DF"/>
			</linearGradient>
			<path class="st4" d="M199.9,53.79v84.85c0,17.2-9.12,32.32-22.78,40.77c-19.22,2.66-35.65-7.99-35.65-29.49v-11.58
				c0,5.46,4.06,10.26,9.5,10.77c6.25,0.59,11.53-4.33,11.53-10.46V91.19C162.51,70.53,179.25,53.79,199.9,53.79z"/>
		</g>
		<linearGradient id="SVGID_5_" gradientUnits="userSpaceOnUse" x1="169.8056" y1="187.0678" x2="180.6923" y2="37.1285">
			<stop  offset="0" style="stop-color:#FC2EB0"/>
			<stop  offset="0.5842" style="stop-color:#AB11E2"/>
			<stop  offset="1" style="stop-color:#6B07DF"/>
		</linearGradient>
		<path class="st5" d="M181.21,48.72L181.21,48.72c-10.33,0-18.7-8.37-18.7-18.7v0c0-10.33,8.37-18.7,18.7-18.7h0
			c10.33,0,18.7,8.37,18.7,18.7v0C199.9,40.35,191.53,48.72,181.21,48.72z"/>
		<linearGradient id="SVGID_6_" gradientUnits="userSpaceOnUse" x1="33.2377" y1="76.1316" x2="97.906" y2="104.7893">
			<stop  offset="0" style="stop-color:#FFFFFF"/>
			<stop  offset="1" style="stop-color:#000000"/>
		</linearGradient>
		<path class="st6" d="M104.08,122.08c0-32.28-37.71-58.42-76.4-41.46c0,0,35.27-9.76,53.77,14.78
			C94.27,97.53,104.08,108.67,104.08,122.08z"/>
		<linearGradient id="SVGID_7_" gradientUnits="userSpaceOnUse" x1="72.9583" y1="183.5221" x2="54.2932" y2="129.9775">
			<stop  offset="0" style="stop-color:#FFFFFF"/>
			<stop  offset="1" style="stop-color:#000000"/>
		</linearGradient>
		<path class="st7" d="M59.23,142.45c-5.68-4.97-9.3-12.24-9.3-20.37c0,13.14,1.17,51.68,32.41,64.25
			C82.34,186.32,59.51,169.83,59.23,142.45z"/>
		<linearGradient id="SVGID_8_" gradientUnits="userSpaceOnUse" x1="115.7299" y1="169.9668" x2="99.7043" y2="127.923">
			<stop  offset="0" style="stop-color:#FFFFFF"/>
			<stop  offset="1" style="stop-color:#000000"/>
		</linearGradient>
		<path class="st8" d="M104.08,122.08c0,5.25-1.52,10.13-4.11,14.28c-0.18,26.44,17.86,35.59,17.86,35.59
			c-8.52-8.85-13.75-20.94-13.75-34.1V122.08z"/>
		<linearGradient id="SVGID_9_" gradientUnits="userSpaceOnUse" x1="114.0481" y1="22.9224" x2="78.1318" y2="95.8864">
			<stop  offset="0" style="stop-color:#EE29B9"/>
			<stop  offset="1" style="stop-color:#000000"/>
		</linearGradient>
		<path class="st9" d="M135.99,96.1c-10.01-22.64-32.67-38.49-58.98-38.49c-19.77,0-37.5,8.95-49.33,23.01
			C58.75,67,89.17,81.18,99.96,104.01l0.01-0.01c0,0-7.78-16.1,0-24.87C106.75,71.5,127.36,79.1,135.99,96.1z"/>
	</g>
	<g>
		<path class="st0" d="M219.41,158.54c1.15-2.04,2.72-3.63,4.71-4.78c1.99-1.15,4.19-1.72,6.62-1.72c2.85,0,5.34,0.69,7.46,2.06
			c2.12,1.38,3.67,3.32,4.65,5.85h-4.09c-0.73-1.58-1.77-2.79-3.13-3.64s-2.99-1.27-4.89-1.27c-1.83,0-3.46,0.42-4.91,1.27
			s-2.59,2.06-3.41,3.62c-0.83,1.56-1.24,3.39-1.24,5.49c0,2.07,0.41,3.89,1.24,5.46c0.83,1.56,1.96,2.77,3.41,3.62
			c1.45,0.85,3.09,1.28,4.91,1.28c1.9,0,3.53-0.42,4.89-1.26c1.36-0.84,2.41-2.04,3.13-3.62h4.09c-0.98,2.5-2.53,4.43-4.65,5.79
			s-4.61,2.04-7.46,2.04c-2.42,0-4.63-0.57-6.62-1.71c-1.99-1.14-3.56-2.72-4.71-4.74c-1.15-2.02-1.72-4.31-1.72-6.86
			C217.68,162.87,218.26,160.57,219.41,158.54z"/>
		<path class="st0" d="M253.88,158.56c1.11-0.65,2.47-0.97,4.07-0.97v3.52h-0.9c-3.82,0-5.74,2.08-5.74,6.22v11.17h-3.41v-20.54
			h3.41v3.34C251.91,160.12,252.76,159.21,253.88,158.56z"/>
		<path class="st0" d="M261.88,162.62c0.85-1.59,2.02-2.82,3.51-3.69c1.49-0.87,3.14-1.31,4.97-1.31c1.8,0,3.36,0.39,4.69,1.16
			c1.32,0.77,2.31,1.75,2.96,2.92v-3.75h3.45v20.54H278v-3.82c-0.67,1.2-1.68,2.19-3.02,2.98s-2.89,1.18-4.67,1.18
			c-1.83,0-3.47-0.45-4.95-1.35c-1.47-0.9-2.64-2.16-3.49-3.79c-0.85-1.62-1.27-3.47-1.27-5.55
			C260.61,166.05,261.03,164.21,261.88,162.62z M277.06,164.14c-0.62-1.15-1.47-2.03-2.53-2.64c-1.06-0.61-2.23-0.92-3.51-0.92
			c-1.27,0-2.44,0.3-3.49,0.9s-1.89,1.47-2.51,2.62c-0.62,1.15-0.94,2.5-0.94,4.05c0,1.58,0.31,2.94,0.94,4.11
			c0.62,1.16,1.46,2.05,2.51,2.66s2.21,0.92,3.49,0.92c1.28,0,2.44-0.31,3.51-0.92c1.06-0.61,1.91-1.5,2.53-2.66
			s0.94-2.52,0.94-4.07S277.69,165.29,277.06,164.14z"/>
		<path class="st0" d="M295.58,160.77h-4.31v17.73h-3.41v-17.73h-2.66v-2.81h2.66v-1.46c0-2.3,0.59-3.98,1.78-5.04
			c1.19-1.06,3.09-1.59,5.72-1.59v2.85c-1.5,0-2.56,0.29-3.17,0.88c-0.61,0.59-0.92,1.56-0.92,2.91v1.46h4.31V160.77z"/>
		<path class="st0" d="M303.72,160.77v12.11c0,1,0.21,1.71,0.64,2.12c0.42,0.41,1.16,0.62,2.21,0.62h2.51v2.89h-3.07
			c-1.9,0-3.32-0.44-4.27-1.31c-0.95-0.87-1.42-2.31-1.42-4.31v-12.11h-2.66v-2.81h2.66v-5.17h3.41v5.17h5.36v2.81H303.72z"/>
		<path class="st0" d="M313.32,153.94c-0.45-0.45-0.67-1-0.67-1.65c0-0.65,0.23-1.2,0.67-1.65c0.45-0.45,1-0.67,1.65-0.67
			c0.62,0,1.16,0.22,1.59,0.67c0.44,0.45,0.66,1,0.66,1.65c0,0.65-0.22,1.2-0.66,1.65c-0.44,0.45-0.97,0.67-1.59,0.67
			C314.32,154.62,313.77,154.39,313.32,153.94z M316.62,157.96v20.54h-3.41v-20.54H316.62z"/>
		<path class="st0" d="M338.51,159.85c1.55,1.51,2.33,3.69,2.33,6.54v12.11h-3.37v-11.62c0-2.05-0.51-3.62-1.54-4.71
			c-1.03-1.09-2.42-1.63-4.2-1.63c-1.8,0-3.23,0.56-4.29,1.69c-1.06,1.12-1.59,2.76-1.59,4.91v11.36h-3.41v-20.54h3.41v2.92
			c0.67-1.05,1.59-1.86,2.75-2.44c1.16-0.57,2.44-0.86,3.84-0.86C334.94,157.58,336.96,158.34,338.51,159.85z"/>
		<path class="st0" d="M359.56,158.78c1.34,0.77,2.33,1.75,2.98,2.92v-3.75h3.45v21c0,1.87-0.4,3.54-1.2,5s-1.94,2.61-3.43,3.43
			c-1.49,0.83-3.22,1.24-5.19,1.24c-2.7,0-4.95-0.64-6.75-1.91c-1.8-1.27-2.86-3.01-3.19-5.21h3.37c0.38,1.25,1.15,2.26,2.32,3.02
			c1.17,0.76,2.59,1.14,4.24,1.14c1.88,0,3.41-0.59,4.59-1.76s1.78-2.82,1.78-4.95v-4.31c-0.67,1.2-1.67,2.2-3,3
			c-1.33,0.8-2.88,1.2-4.65,1.2c-1.82,0-3.48-0.45-4.97-1.35c-1.49-0.9-2.66-2.16-3.51-3.79c-0.85-1.62-1.27-3.47-1.27-5.55
			c0-2.1,0.42-3.94,1.27-5.53s2.02-2.82,3.51-3.69c1.49-0.87,3.14-1.31,4.97-1.31C356.67,157.62,358.22,158.01,359.56,158.78z
			 M361.6,164.14c-0.62-1.15-1.47-2.03-2.53-2.64c-1.06-0.61-2.23-0.92-3.51-0.92c-1.27,0-2.44,0.3-3.49,0.9s-1.89,1.47-2.51,2.62
			c-0.62,1.15-0.94,2.5-0.94,4.05c0,1.58,0.31,2.94,0.94,4.11c0.62,1.16,1.46,2.05,2.51,2.66s2.21,0.92,3.49,0.92
			c1.28,0,2.44-0.31,3.51-0.92c1.06-0.61,1.91-1.5,2.53-2.66s0.94-2.52,0.94-4.07S362.23,165.29,361.6,164.14z"/>
		<path class="st0" d="M385.43,177.84c-1.36-0.61-2.43-1.46-3.21-2.55c-0.78-1.09-1.18-2.34-1.2-3.77h3.64
			c0.12,1.23,0.63,2.26,1.52,3.09c0.89,0.84,2.18,1.26,3.88,1.26c1.62,0,2.91-0.41,3.84-1.22c0.94-0.81,1.41-1.86,1.41-3.13
			c0-1-0.28-1.81-0.83-2.44c-0.55-0.62-1.24-1.1-2.06-1.42c-0.83-0.32-1.94-0.67-3.34-1.05c-1.72-0.45-3.11-0.9-4.14-1.35
			c-1.04-0.45-1.92-1.16-2.66-2.12c-0.74-0.96-1.11-2.25-1.11-3.88c0-1.42,0.36-2.69,1.09-3.79c0.72-1.1,1.74-1.95,3.06-2.55
			s2.82-0.9,4.52-0.9c2.45,0,4.46,0.61,6.02,1.84c1.56,1.22,2.44,2.85,2.64,4.87h-3.75c-0.12-1-0.65-1.88-1.57-2.64
			c-0.92-0.76-2.15-1.14-3.67-1.14c-1.42,0-2.59,0.37-3.49,1.11c-0.9,0.74-1.35,1.77-1.35,3.09c0,0.95,0.27,1.72,0.81,2.32
			c0.54,0.6,1.2,1.06,1.99,1.37s1.89,0.67,3.32,1.07c1.72,0.48,3.11,0.94,4.16,1.41c1.05,0.46,1.95,1.17,2.7,2.14
			c0.75,0.96,1.12,2.27,1.12,3.92c0,1.27-0.34,2.47-1.01,3.6c-0.67,1.12-1.67,2.04-3,2.74c-1.33,0.7-2.89,1.05-4.69,1.05
			C388.33,178.76,386.79,178.46,385.43,177.84z"/>
		<path class="st0" d="M432.76,158.57c1.25,0.66,2.24,1.66,2.96,2.98c0.72,1.32,1.09,2.94,1.09,4.84v12.11h-3.37v-11.62
			c0-2.05-0.51-3.62-1.52-4.71c-1.01-1.09-2.38-1.63-4.11-1.63c-1.77,0-3.19,0.57-4.24,1.71c-1.05,1.14-1.57,2.78-1.57,4.93v11.32
			h-3.37v-11.62c0-2.05-0.51-3.62-1.52-4.71c-1.01-1.09-2.38-1.63-4.11-1.63c-1.78,0-3.19,0.57-4.24,1.71
			c-1.05,1.14-1.57,2.78-1.57,4.93v11.32h-3.41v-20.54h3.41v2.96c0.67-1.07,1.58-1.9,2.72-2.47c1.14-0.57,2.39-0.86,3.77-0.86
			c1.72,0,3.25,0.39,4.57,1.16c1.32,0.78,2.31,1.91,2.96,3.41c0.58-1.45,1.52-2.57,2.85-3.37c1.32-0.8,2.8-1.2,4.42-1.2
			C430.09,157.58,431.51,157.91,432.76,158.57z"/>
		<path class="st0" d="M442.4,162.62c0.85-1.59,2.02-2.82,3.51-3.69c1.49-0.87,3.14-1.31,4.97-1.31c1.8,0,3.36,0.39,4.69,1.16
			c1.32,0.77,2.31,1.75,2.96,2.92v-3.75h3.45v20.54h-3.45v-3.82c-0.67,1.2-1.68,2.19-3.02,2.98s-2.89,1.18-4.67,1.18
			c-1.83,0-3.47-0.45-4.95-1.35c-1.47-0.9-2.64-2.16-3.49-3.79c-0.85-1.62-1.27-3.47-1.27-5.55
			C441.12,166.05,441.55,164.21,442.4,162.62z M457.58,164.14c-0.62-1.15-1.47-2.03-2.53-2.64c-1.06-0.61-2.23-0.92-3.51-0.92
			c-1.27,0-2.44,0.3-3.49,0.9s-1.89,1.47-2.51,2.62c-0.62,1.15-0.94,2.5-0.94,4.05c0,1.58,0.31,2.94,0.94,4.11
			c0.62,1.16,1.46,2.05,2.51,2.66s2.21,0.92,3.49,0.92c1.28,0,2.44-0.31,3.51-0.92c1.06-0.61,1.91-1.5,2.53-2.66
			s0.94-2.52,0.94-4.07S458.2,165.29,457.58,164.14z"/>
		<path class="st0" d="M473.72,158.56c1.11-0.65,2.47-0.97,4.07-0.97v3.52h-0.9c-3.82,0-5.74,2.08-5.74,6.22v11.17h-3.41v-20.54
			h3.41v3.34C471.75,160.12,472.61,159.21,473.72,158.56z"/>
		<path class="st0" d="M485.88,160.77v12.11c0,1,0.21,1.71,0.64,2.12c0.42,0.41,1.16,0.62,2.21,0.62h2.51v2.89h-3.07
			c-1.9,0-3.32-0.44-4.27-1.31c-0.95-0.87-1.42-2.31-1.42-4.31v-12.11h-2.66v-2.81h2.66v-5.17h3.41v5.17h5.36v2.81H485.88z"/>
		<path class="st0" d="M509.03,177.84c-1.36-0.61-2.43-1.46-3.21-2.55c-0.78-1.09-1.18-2.34-1.2-3.77h3.64
			c0.12,1.23,0.63,2.26,1.52,3.09c0.89,0.84,2.18,1.26,3.88,1.26c1.62,0,2.91-0.41,3.84-1.22c0.94-0.81,1.41-1.86,1.41-3.13
			c0-1-0.28-1.81-0.83-2.44c-0.55-0.62-1.24-1.1-2.06-1.42c-0.83-0.32-1.94-0.67-3.34-1.05c-1.72-0.45-3.11-0.9-4.14-1.35
			c-1.04-0.45-1.92-1.16-2.66-2.12c-0.74-0.96-1.11-2.25-1.11-3.88c0-1.42,0.36-2.69,1.09-3.79c0.72-1.1,1.74-1.95,3.06-2.55
			s2.82-0.9,4.52-0.9c2.45,0,4.46,0.61,6.02,1.84c1.56,1.22,2.44,2.85,2.64,4.87h-3.75c-0.12-1-0.65-1.88-1.57-2.64
			c-0.92-0.76-2.15-1.14-3.67-1.14c-1.42,0-2.59,0.37-3.49,1.11c-0.9,0.74-1.35,1.77-1.35,3.09c0,0.95,0.27,1.72,0.81,2.32
			c0.54,0.6,1.2,1.06,1.99,1.37s1.89,0.67,3.32,1.07c1.72,0.48,3.11,0.94,4.16,1.41c1.05,0.46,1.95,1.17,2.7,2.14
			c0.75,0.96,1.12,2.27,1.12,3.92c0,1.27-0.34,2.47-1.01,3.6c-0.67,1.12-1.67,2.04-3,2.74c-1.33,0.7-2.89,1.05-4.69,1.05
			C511.94,178.76,510.4,178.46,509.03,177.84z"/>
		<path class="st0" d="M531.12,177.53c-1.56-0.88-2.79-2.12-3.67-3.73c-0.89-1.61-1.33-3.48-1.33-5.6c0-2.1,0.46-3.96,1.37-5.57
			c0.91-1.61,2.16-2.85,3.73-3.71c1.57-0.86,3.34-1.29,5.29-1.29s3.71,0.43,5.29,1.29c1.57,0.86,2.82,2.09,3.73,3.69
			c0.91,1.6,1.37,3.46,1.37,5.59s-0.47,3.99-1.41,5.6c-0.94,1.61-2.21,2.86-3.8,3.73c-1.6,0.88-3.37,1.31-5.32,1.31
			C534.42,178.84,532.68,178.4,531.12,177.53z M539.79,174.98c1.07-0.57,1.94-1.44,2.61-2.59c0.66-1.15,0.99-2.55,0.99-4.2
			s-0.33-3.05-0.97-4.2c-0.65-1.15-1.5-2.01-2.55-2.57s-2.19-0.84-3.41-0.84c-1.25,0-2.39,0.28-3.43,0.84
			c-1.04,0.56-1.87,1.42-2.49,2.57c-0.62,1.15-0.94,2.55-0.94,4.2c0,1.67,0.31,3.09,0.92,4.24c0.61,1.15,1.43,2.01,2.46,2.57
			c1.02,0.56,2.15,0.84,3.37,0.84S538.72,175.55,539.79,174.98z"/>
		<path class="st0" d="M554.79,150.76v27.74h-3.41v-27.74H554.79z"/>
		<path class="st0" d="M578.82,157.96v20.54h-3.41v-3.04c-0.65,1.05-1.56,1.87-2.72,2.46s-2.44,0.88-3.84,0.88
			c-1.6,0-3.04-0.33-4.31-0.99s-2.28-1.66-3.02-2.98c-0.74-1.32-1.11-2.94-1.11-4.84v-12.03h3.37v11.58c0,2.02,0.51,3.58,1.54,4.67
			c1.02,1.09,2.42,1.63,4.2,1.63c1.82,0,3.26-0.56,4.31-1.69c1.05-1.12,1.57-2.76,1.57-4.91v-11.29H578.82z"/>
		<path class="st0" d="M588.76,160.77v12.11c0,1,0.21,1.71,0.64,2.12c0.42,0.41,1.16,0.62,2.21,0.62h2.51v2.89h-3.07
			c-1.9,0-3.32-0.44-4.27-1.31c-0.95-0.87-1.42-2.31-1.42-4.31v-12.11h-2.66v-2.81h2.66v-5.17h3.41v5.17h5.36v2.81H588.76z"/>
		<path class="st0" d="M598.35,153.94c-0.45-0.45-0.67-1-0.67-1.65c0-0.65,0.23-1.2,0.67-1.65c0.45-0.45,1-0.67,1.65-0.67
			c0.62,0,1.16,0.22,1.59,0.67c0.44,0.45,0.66,1,0.66,1.65c0,0.65-0.22,1.2-0.66,1.65c-0.44,0.45-0.97,0.67-1.59,0.67
			C599.35,154.62,598.8,154.39,598.35,153.94z M601.65,157.96v20.54h-3.41v-20.54H601.65z"/>
		<path class="st0" d="M611.19,177.53c-1.56-0.88-2.79-2.12-3.67-3.73c-0.89-1.61-1.33-3.48-1.33-5.6c0-2.1,0.46-3.96,1.37-5.57
			c0.91-1.61,2.16-2.85,3.73-3.71c1.57-0.86,3.34-1.29,5.29-1.29s3.71,0.43,5.29,1.29c1.57,0.86,2.82,2.09,3.73,3.69
			c0.91,1.6,1.37,3.46,1.37,5.59s-0.47,3.99-1.41,5.6c-0.94,1.61-2.21,2.86-3.8,3.73c-1.6,0.88-3.37,1.31-5.32,1.31
			C614.5,178.84,612.75,178.4,611.19,177.53z M619.87,174.98c1.07-0.57,1.94-1.44,2.61-2.59c0.66-1.15,0.99-2.55,0.99-4.2
			s-0.33-3.05-0.97-4.2c-0.65-1.15-1.5-2.01-2.55-2.57s-2.19-0.84-3.41-0.84c-1.25,0-2.39,0.28-3.43,0.84
			c-1.04,0.56-1.87,1.42-2.49,2.57c-0.62,1.15-0.94,2.55-0.94,4.2c0,1.67,0.31,3.09,0.92,4.24c0.61,1.15,1.43,2.01,2.46,2.57
			c1.02,0.56,2.15,0.84,3.37,0.84S618.8,175.55,619.87,174.98z"/>
		<path class="st0" d="M647.54,159.85c1.55,1.51,2.33,3.69,2.33,6.54v12.11h-3.37v-11.62c0-2.05-0.51-3.62-1.54-4.71
			c-1.03-1.09-2.42-1.63-4.2-1.63c-1.8,0-3.23,0.56-4.29,1.69c-1.06,1.12-1.59,2.76-1.59,4.91v11.36h-3.41v-20.54h3.41v2.92
			c0.67-1.05,1.59-1.86,2.75-2.44c1.16-0.57,2.44-0.86,3.84-0.86C643.97,157.58,645.99,158.34,647.54,159.85z"/>
		<path class="st0" d="M658.49,178.03c-1.25-0.54-2.24-1.29-2.96-2.25c-0.73-0.96-1.12-2.07-1.2-3.32h3.52
			c0.1,1.03,0.58,1.86,1.44,2.51c0.86,0.65,1.99,0.97,3.39,0.97c1.3,0,2.33-0.29,3.07-0.86c0.75-0.57,1.12-1.3,1.12-2.17
			c0-0.9-0.4-1.57-1.2-2.01c-0.8-0.44-2.04-0.87-3.71-1.29c-1.52-0.4-2.77-0.81-3.73-1.22s-1.79-1.02-2.47-1.84
			s-1.03-1.88-1.03-3.21c0-1.05,0.31-2.01,0.94-2.89c0.62-0.87,1.51-1.57,2.66-2.08s2.46-0.77,3.94-0.77c2.27,0,4.11,0.58,5.51,1.72
			s2.15,2.72,2.25,4.72h-3.41c-0.07-1.07-0.51-1.94-1.29-2.59c-0.79-0.65-1.84-0.97-3.17-0.97c-1.22,0-2.2,0.26-2.92,0.79
			c-0.72,0.52-1.09,1.21-1.09,2.06c0,0.67,0.22,1.23,0.66,1.67c0.44,0.44,0.99,0.79,1.65,1.05c0.66,0.26,1.58,0.56,2.76,0.88
			c1.47,0.4,2.67,0.79,3.6,1.18c0.92,0.39,1.72,0.97,2.38,1.74c0.66,0.78,1.01,1.79,1.03,3.04c0,1.12-0.31,2.14-0.94,3.04
			c-0.62,0.9-1.51,1.61-2.64,2.12c-1.14,0.51-2.44,0.77-3.92,0.77C661.15,178.84,659.74,178.57,658.49,178.03z"/>
		<path class="st0" d="M712.4,157.96l-6.41,20.54h-3.52l-4.95-16.31l-4.95,16.31h-3.52l-6.45-20.54h3.49l4.72,17.25l5.1-17.25h3.49
			l4.99,17.28l4.65-17.28H712.4z"/>
		<path class="st0" d="M715.88,153.94c-0.45-0.45-0.67-1-0.67-1.65c0-0.65,0.23-1.2,0.67-1.65c0.45-0.45,1-0.67,1.65-0.67
			c0.62,0,1.16,0.22,1.59,0.67c0.44,0.45,0.66,1,0.66,1.65c0,0.65-0.22,1.2-0.66,1.65c-0.44,0.45-0.97,0.67-1.59,0.67
			C716.88,154.62,716.33,154.39,715.88,153.94z M719.18,157.96v20.54h-3.41v-20.54H719.18z"/>
		<path class="st0" d="M729.16,160.77v12.11c0,1,0.21,1.71,0.64,2.12c0.42,0.41,1.16,0.62,2.21,0.62h2.51v2.89h-3.07
			c-1.9,0-3.32-0.44-4.27-1.31c-0.95-0.87-1.42-2.31-1.42-4.31v-12.11h-2.66v-2.81h2.66v-5.17h3.41v5.17h5.36v2.81H729.16z"/>
		<path class="st0" d="M753.04,158.57c1.25,0.66,2.23,1.66,2.94,2.98c0.71,1.32,1.07,2.94,1.07,4.84v12.11h-3.37v-11.62
			c0-2.05-0.51-3.62-1.54-4.71c-1.03-1.09-2.42-1.63-4.2-1.63c-1.8,0-3.23,0.56-4.29,1.69c-1.06,1.12-1.59,2.76-1.59,4.91v11.36
			h-3.41v-27.74h3.41v10.12c0.67-1.05,1.61-1.86,2.79-2.44c1.19-0.57,2.52-0.86,3.99-0.86
			C750.39,157.58,751.79,157.91,753.04,158.57z"/>
		<path class="st0" d="M788.09,172.69h-11.4l-2.1,5.81h-3.6l9.45-25.98h3.94l9.41,25.98h-3.6L788.09,172.69z M787.12,169.92
			l-4.72-13.2l-4.72,13.2H787.12z"/>
		<path class="st0" d="M801.33,152.37v26.13h-3.41v-26.13H801.33z"/>
	</g>
</g>
</svg>
